<mxfile host="app.diagrams.net" modified="2022-03-17T10:34:04.807Z" agent="5.0 (Windows NT 10.0; Win64; x64) AppleWebKit/537.36 (KHTML, like Gecko) Chrome/99.0.4844.51 Safari/537.36" etag="RPluu9MI_R_TVxJZDGCE" version="17.1.3" type="github">
  <diagram id="nrzdOsc2V6H1gwax16Wy" name="Page-1">
    <mxGraphModel dx="875" dy="-4240" grid="0" gridSize="10" guides="1" tooltips="1" connect="1" arrows="1" fold="1" page="1" pageScale="1" pageWidth="827" pageHeight="1169" math="0" shadow="0">
      <root>
        <mxCell id="0" />
        <mxCell id="1" parent="0" />
        <mxCell id="wux-ULanlnSaFS9LeWV--1" value="Cas d&#39;utilisation : Gerer les departements" style="shape=umlFrame;tabPosition=left;html=1;boundedLbl=1;labelInHeader=1;width=269;height=32;swimlaneFillColor=#ffffff;align=left;spacingLeft=5;fontSize=14;" vertex="1" parent="1">
          <mxGeometry x="438" y="4940" width="781" height="437" as="geometry" />
        </mxCell>
        <mxCell id="wux-ULanlnSaFS9LeWV--2" value="&lt;span style=&quot;font-weight: 700&quot;&gt;Administrateur&lt;/span&gt;" style="shape=umlActor;verticalLabelPosition=bottom;verticalAlign=top;html=1;outlineConnect=0;" vertex="1" parent="1">
          <mxGeometry x="330" y="5130" width="30" height="60" as="geometry" />
        </mxCell>
        <mxCell id="wux-ULanlnSaFS9LeWV--3" value="Consulter departement" style="shape=ellipse;html=1;strokeWidth=3;fontStyle=1;whiteSpace=wrap;align=center;perimeter=ellipsePerimeter;fillColor=#dae8fc;strokeColor=#67BFBC;" vertex="1" parent="1">
          <mxGeometry x="476" y="5130" width="160" height="60" as="geometry" />
        </mxCell>
        <mxCell id="wux-ULanlnSaFS9LeWV--4" value="Ajouter une departement" style="shape=ellipse;html=1;strokeWidth=3;fontStyle=1;whiteSpace=wrap;align=center;perimeter=ellipsePerimeter;fillColor=#dae8fc;strokeColor=#67BFBC;" vertex="1" parent="1">
          <mxGeometry x="721" y="4984" width="160" height="46" as="geometry" />
        </mxCell>
        <mxCell id="wux-ULanlnSaFS9LeWV--5" value="Modifier un departement" style="shape=ellipse;html=1;strokeWidth=3;fontStyle=1;whiteSpace=wrap;align=center;perimeter=ellipsePerimeter;fillColor=#dae8fc;strokeColor=#67BFBC;" vertex="1" parent="1">
          <mxGeometry x="717" y="5063" width="160" height="35" as="geometry" />
        </mxCell>
        <mxCell id="wux-ULanlnSaFS9LeWV--6" value="Supprimer une departement" style="shape=ellipse;html=1;strokeWidth=3;fontStyle=1;whiteSpace=wrap;align=center;perimeter=ellipsePerimeter;fillColor=#dae8fc;strokeColor=#67BFBC;" vertex="1" parent="1">
          <mxGeometry x="721" y="5134.5" width="160" height="48" as="geometry" />
        </mxCell>
        <mxCell id="wux-ULanlnSaFS9LeWV--7" value="&amp;lt;&amp;lt;extend&amp;gt;&amp;gt;" style="edgeStyle=none;html=1;startArrow=open;endArrow=none;startSize=12;verticalAlign=bottom;dashed=1;labelBackgroundColor=none;rounded=0;entryX=0;entryY=0.5;entryDx=0;entryDy=0;exitX=0.5;exitY=0;exitDx=0;exitDy=0;" edge="1" parent="1" source="wux-ULanlnSaFS9LeWV--3" target="wux-ULanlnSaFS9LeWV--4">
          <mxGeometry x="0.5148" y="-15" width="160" relative="1" as="geometry">
            <mxPoint x="603" y="5063" as="sourcePoint" />
            <mxPoint x="763" y="5063" as="targetPoint" />
            <mxPoint as="offset" />
          </mxGeometry>
        </mxCell>
        <mxCell id="wux-ULanlnSaFS9LeWV--8" value="&amp;lt;&amp;lt;extend&amp;gt;&amp;gt;" style="edgeStyle=none;html=1;startArrow=open;endArrow=none;startSize=12;verticalAlign=bottom;dashed=1;labelBackgroundColor=none;rounded=0;entryX=0;entryY=0.5;entryDx=0;entryDy=0;exitX=1;exitY=0;exitDx=0;exitDy=0;" edge="1" parent="1" source="wux-ULanlnSaFS9LeWV--3" target="wux-ULanlnSaFS9LeWV--5">
          <mxGeometry x="0.3417" y="-19" width="160" relative="1" as="geometry">
            <mxPoint x="603" y="5063" as="sourcePoint" />
            <mxPoint x="763" y="5063" as="targetPoint" />
            <mxPoint as="offset" />
          </mxGeometry>
        </mxCell>
        <mxCell id="wux-ULanlnSaFS9LeWV--9" value="&amp;lt;&amp;lt;extend&amp;gt;&amp;gt;" style="edgeStyle=none;html=1;startArrow=open;endArrow=none;startSize=12;verticalAlign=bottom;dashed=1;labelBackgroundColor=none;rounded=0;entryX=0;entryY=0.5;entryDx=0;entryDy=0;exitX=1;exitY=1;exitDx=0;exitDy=0;" edge="1" parent="1" source="wux-ULanlnSaFS9LeWV--3" target="wux-ULanlnSaFS9LeWV--14">
          <mxGeometry x="0.4647" y="11" width="160" relative="1" as="geometry">
            <mxPoint x="603" y="5063" as="sourcePoint" />
            <mxPoint x="763" y="5063" as="targetPoint" />
            <mxPoint as="offset" />
          </mxGeometry>
        </mxCell>
        <mxCell id="wux-ULanlnSaFS9LeWV--11" value="Consulter le&amp;nbsp;profit et la perte" style="shape=ellipse;html=1;strokeWidth=3;fontStyle=1;whiteSpace=wrap;align=center;perimeter=ellipsePerimeter;fillColor=#dae8fc;strokeColor=#67BFBC;" vertex="1" parent="1">
          <mxGeometry x="721" y="5285" width="160" height="49" as="geometry" />
        </mxCell>
        <mxCell id="wux-ULanlnSaFS9LeWV--13" value="&amp;lt;&amp;lt;extend&amp;gt;&amp;gt;" style="edgeStyle=none;html=1;startArrow=open;endArrow=none;startSize=12;verticalAlign=bottom;dashed=1;labelBackgroundColor=none;rounded=0;entryX=0;entryY=0.5;entryDx=0;entryDy=0;exitX=0.5;exitY=1;exitDx=0;exitDy=0;" edge="1" parent="1" source="wux-ULanlnSaFS9LeWV--3" target="wux-ULanlnSaFS9LeWV--11">
          <mxGeometry x="0.6453" y="10" width="160" relative="1" as="geometry">
            <mxPoint x="589" y="5136.08" as="sourcePoint" />
            <mxPoint x="749" y="5136.08" as="targetPoint" />
            <mxPoint as="offset" />
          </mxGeometry>
        </mxCell>
        <mxCell id="wux-ULanlnSaFS9LeWV--14" value="Consulter le KPI" style="shape=ellipse;html=1;strokeWidth=3;fontStyle=1;whiteSpace=wrap;align=center;perimeter=ellipsePerimeter;fillColor=#dae8fc;strokeColor=#67BFBC;" vertex="1" parent="1">
          <mxGeometry x="721" y="5215" width="160" height="37" as="geometry" />
        </mxCell>
        <mxCell id="wux-ULanlnSaFS9LeWV--15" value="&amp;lt;&amp;lt;extend&amp;gt;&amp;gt;" style="edgeStyle=none;html=1;startArrow=open;endArrow=none;startSize=12;verticalAlign=bottom;dashed=1;labelBackgroundColor=none;rounded=0;" edge="1" parent="1" source="wux-ULanlnSaFS9LeWV--3" target="wux-ULanlnSaFS9LeWV--6">
          <mxGeometry x="0.3412" y="2" width="160" relative="1" as="geometry">
            <mxPoint x="615" y="5155" as="sourcePoint" />
            <mxPoint x="778" y="5152" as="targetPoint" />
            <mxPoint as="offset" />
          </mxGeometry>
        </mxCell>
        <mxCell id="wux-ULanlnSaFS9LeWV--31" value="Afficher les KPI des projets&amp;nbsp;&amp;nbsp;" style="shape=ellipse;html=1;strokeWidth=3;fontStyle=1;whiteSpace=wrap;align=center;perimeter=ellipsePerimeter;fillColor=#dae8fc;strokeColor=#67BFBC;" vertex="1" parent="1">
          <mxGeometry x="959" y="5213.5" width="160" height="40" as="geometry" />
        </mxCell>
        <mxCell id="wux-ULanlnSaFS9LeWV--32" value="&amp;lt;&amp;lt;extend&amp;gt;&amp;gt;" style="edgeStyle=none;html=1;startArrow=open;endArrow=none;startSize=12;verticalAlign=bottom;dashed=1;labelBackgroundColor=none;rounded=0;" edge="1" parent="1" source="wux-ULanlnSaFS9LeWV--14" target="wux-ULanlnSaFS9LeWV--31">
          <mxGeometry x="0.2051" y="2" width="160" relative="1" as="geometry">
            <mxPoint x="848" y="5120" as="sourcePoint" />
            <mxPoint x="1008" y="5120" as="targetPoint" />
            <mxPoint as="offset" />
          </mxGeometry>
        </mxCell>
      </root>
    </mxGraphModel>
  </diagram>
</mxfile>
